<svg width="220" height="70" viewBox="0 0 220 70" xmlns="http://www.w3.org/2000/svg">
  <defs>
    <linearGradient id="logoGradient" x1="0%" y1="0%" x2="100%" y2="100%">
      <stop offset="0%" stop-color="#667eea"/>
      <stop offset="100%" stop-color="#764ba2"/>
    </linearGradient>
    <linearGradient id="accentGradient" x1="0%" y1="0%" x2="0%" y2="100%">
      <stop offset="0%" stop-color="#f7b733"/>
      <stop offset="100%" stop-color="#fc4a1a"/>
    </linearGradient>
  </defs>
  <rect x="0" y="0" width="220" height="70" rx="18" ry="18" fill="#ffffff" opacity="0"/>
  <g transform="translate(20 10)">
    <path d="M25 5 h40 a10 10 0 0 1 10 10 v25 a10 10 0 0 1-10 10 h-40 a10 10 0 0 1-10-10 v-25 a10 10 0 0 1 10-10z" fill="url(#logoGradient)" opacity="0.95"/>
    <rect x="18" y="12" width="54" height="8" rx="4" fill="rgba(255,255,255,0.55)"/>
    <rect x="18" y="24" width="54" height="8" rx="4" fill="rgba(255,255,255,0.4)"/>
    <path d="M12 38 h64 v6 a8 8 0 0 1-8 8 h-48 a8 8 0 0 1-8-8z" fill="url(#accentGradient)"/>
    <circle cx="20" cy="48" r="5" fill="#ffffff" opacity="0.85"/>
    <circle cx="68" cy="48" r="5" fill="#ffffff" opacity="0.85"/>
  </g>
  <text x="100" y="40" fill="#222" font-size="20" font-family="Cairo, 'Segoe UI', sans-serif" font-weight="700">
    نظام طلب المنتجات
  </text>
  <text x="100" y="58" fill="#667eea" font-size="12" font-family="'Segoe UI', sans-serif" font-weight="600">
    طلب سريع • متابعة سهلة
  </text>
</svg>

